HIERARCHY
ROOT HipCenter
{
    OFFSET 0.0 0.0 -0.0
    CHANNELS 6 Xposition Yposition Zposition Zrotation Xrotation Yrotation
    JOINT Spine
    {
        OFFSET 0.0 10.532708168029785 0.0
        CHANNELS 3 Zrotation Xrotation Yrotation
        JOINT ShoulderCenter
        {
            OFFSET 0.0 30.426607131958008 0.0
            CHANNELS 3 Zrotation Xrotation Yrotation
            JOINT LeftShoulder
            {
                OFFSET 19.778854370117188 0.0 0.0
                CHANNELS 3 Zrotation Xrotation Yrotation
                JOINT LeftElbow
                {
                    OFFSET 26.16524887084961 0.0 0.0
                    CHANNELS 3 Zrotation Xrotation Yrotation
                    JOINT LeftWrist
                    {
                        OFFSET 30.865833282470703 0.0 0.0
                        CHANNELS 3 Zrotation Xrotation Yrotation
                        JOINT LeftHand
                        {
                            OFFSET 3.1341753005981445 0.0 0.0
                            CHANNELS 3 Zrotation Xrotation Yrotation
                            End Site
                            {
                                OFFSET 1.2536702156066895 0.0 0.0
                            }
                        }
                    }
                }
            }
            JOINT RightShoulder
            {
                OFFSET -19.778854370117188 0.0 0.0
                CHANNELS 3 Zrotation Xrotation Yrotation
                JOINT RightElbow
                {
                    OFFSET -26.16524887084961 0.0 0.0
                    CHANNELS 3 Zrotation Xrotation Yrotation
                    JOINT RightWrist
                    {
                        OFFSET -30.865833282470703 0.0 0.0
                        CHANNELS 3 Zrotation Xrotation Yrotation
                        JOINT RightHand
                        {
                            OFFSET -3.1341753005981445 0.0 0.0
                            CHANNELS 3 Zrotation Xrotation Yrotation
                            End Site
                            {
                                OFFSET -1.2536702156066895 0.0 0.0
                            }
                        }
                    }
                }
            }
            End Site
            {
                OFFSET 0.0 12.170642852783203 0.0
            }
        }
    }
    JOINT LeftHip
    {
        OFFSET 14.163257598876953 0.0 0.0
        CHANNELS 3 Zrotation Xrotation Yrotation
        JOINT LeftKnee
        {
            OFFSET 0.0 -41.67684555053711 0.0
            CHANNELS 3 Zrotation Xrotation Yrotation
            JOINT LeftAnkle
            {
                OFFSET 0.0 -43.67390441894531 0.0
                CHANNELS 3 Zrotation Xrotation Yrotation
                JOINT LeftFoot
                {
                    OFFSET 0.0 -11.31381607055664 0.0
                    CHANNELS 3 Zrotation Xrotation Yrotation
                    End Site
                    {
                        OFFSET 0.0 0.0 4.525526523590088
                    }
                }
            }
        }
    }
    JOINT RightHip
    {
        OFFSET -14.163257598876953 0.0 0.0
        CHANNELS 3 Zrotation Xrotation Yrotation
        JOINT RightKnee
        {
            OFFSET 0.0 -41.67684555053711 0.0
            CHANNELS 3 Zrotation Xrotation Yrotation
            JOINT RightAnkle
            {
                OFFSET 0.0 -43.67390441894531 0.0
                CHANNELS 3 Zrotation Xrotation Yrotation
                JOINT RightFoot
                {
                    OFFSET 0.0 -11.31381607055664 0.0
                    CHANNELS 3 Zrotation Xrotation Yrotation
                    End Site
                    {
                        OFFSET 0.0 0.0 4.525526523590088
                    }
                }
            }
        }
    }
}
MOTION
Frames: 6
Frame Time: 0.03333333333333333
-0.5 6.5 24.200000762939453 -19.98310903306929 70.47102560636264 14.4999425524246 -4.214252734173138 -2.998013611177014 -0.7167555706657159 1.6873936828702227e-06 -1.0575208205420562e-06 -6.742350195101389 83.32759342721072 -1.331785855647162 -123.0227576151025 -1.898544685711316e-06 9.19666440502751e-07 49.30171849956154 179.99999811985387 -52.32602630969964 -143.21254613635813 -2.2069531490250793e-32 -1.5902773407317584e-15 -1.5902773407317584e-15 -114.12965333992936 -26.64325005617331 159.42323769253352 -4.198772744321891e-06 -1.2870627762503304e-06 -88.74907131673783 -179.99999549441685 16.402716113483194 111.30132239235465 0.0 -7.951386703658792e-16 0.0 71.47153389036625 -80.41529406562385 80.26758014183264 10.52659342945644 27.8927882190269 -49.64384419295854 80.93213748973808 -51.794460698992836 142.9501695515119 -3.1805546814635168e-15 -1.5902773407317582e-15 -4.770832022195275e-15 -21.407015563065837 -47.6607056993973 18.153972514905384 -0.025371431671804695 0.09596588641550184 0.20221284516069346 -63.989417404316654 -45.26292692998749 -138.33833699206392 0.0 0.0 -2.385416011097637e-15
-0.5 6.5 24.100000381469727 -19.983110080629846 70.65173748268599 14.634831273119087 -4.485486256099246 -3.246074904360112 -0.770966059484877 -2.214831459950363e-06 2.3031286837824018e-06 -7.056397142088889 82.91903321145824 -1.3675743583895736 -122.81787980852663 3.434182979756649e-07 1.23754736799804e-06 48.68251320137731 179.99999804840044 -53.38119327146868 -143.34050669558184 0.0 -3.1805546814635168e-15 0.0 -114.01052002985254 -26.628814490265 159.6732115627231 -3.007759947982781e-06 2.169633706786926e-06 -88.52709514948118 -179.99999796654023 15.421559465107828 109.27878261092292 0.0 1.5902773407317582e-15 0.0 72.16815706071114 -80.59802885924678 81.0199803678653 10.479354145909273 27.772265589392653 -49.463259218363305 80.40508255381451 -51.84142394972113 142.486388265345 -3.1805546814635164e-15 -6.3611093629270335e-15 7.951386703658792e-15 -22.016956888716127 -47.69194698748066 18.56017556250485 0.000545665272109817 -0.22990941453428032 -0.4816441521415175 -63.37970925222771 -44.87442839391149 -137.77455358912897 0.0 0.0 1.5902773407317588e-15
-0.5 6.5 24.100000381469727 -19.98310309387875 70.471011852209 14.294341817859353 -4.365029151386306 -3.2033408338793095 -0.7500793287911803 -1.0744817469722756e-06 4.701289234741077e-06 -6.941045245695391 82.8941573792402 -1.0860197013018333 -122.84071566451898 5.36773066870982e-07 1.7486715374900148e-06 49.092341637604754 179.99999950191332 -51.63442809044884 -141.74282659673423 -6.3611093629270335e-15 -1.5902773407317584e-15 1.5902773407317584e-15 -114.51673268319463 -26.967012626180374 159.2775367225818 -1.8019835937187148e-06 1.1225271097993292e-07 -88.07329378877782 -179.99999947047712 17.861195662195325 110.51527914043966 0.0 0.0 0.0 72.06603930818508 -80.22587884368295 81.12506064811068 10.478896627653082 27.80765410100693 -49.79248722635511 80.50551820278827 -51.19614124687619 142.9180907279009 3.1805546814635176e-15 -1.3241718894150476e-31 -4.770832022195277e-15 -21.41608890641279 -47.87188195777788 18.7371224552418 -0.12070588089321954 0.14192600527591764 0.29872751707585127 -63.391329142964686 -45.267288214590316 -137.69887477221263 3.1805546814635176e-15 -4.4139062980501586e-32 -1.5902773407317588e-15
-0.6000000238418579 6.5 24.100000381469727 -19.983106537107133 70.4710191769708 15.028186941659325 -4.4122565235835 -3.3960199754081324 -0.7921271634332606 -1.0633829189384381e-06 -1.931801396026407e-06 -7.581539009529045 83.52191479674325 -1.0382688535392637 -122.77135391640478 5.745793814667942e-07 2.0455230857111167e-06 48.996136549902026 179.99999604662378 -55.389475282287414 -143.415472611018 -6.3611093629270335e-15 3.531125038440127e-31 -6.3611093629270335e-15 -113.73476737347174 -27.325844631213545 159.70485405338013 3.020291691591216e-06 5.893337342702998e-06 -87.68736365450478 -179.9999979694512 15.772992120627231 113.62754196120015 -6.3611093629270335e-15 -3.975693351829396e-15 -2.2069531490250793e-31 70.42255705355163 -80.91464149837128 79.69661835747449 10.546725661802965 27.608625856864844 -48.74935496018942 80.08284328692315 -51.89198782963722 142.05517622049052 3.1805546814635164e-15 4.770832022195274e-15 -3.1805546814635164e-15 -22.20865799125384 -47.53805945220772 18.84676797948011 0.08690849528729307 -0.13790753154020563 -0.2926252770764837 -63.651229214548955 -44.668398231199134 -138.4462243388303 -4.4139062980501586e-32 -6.3611093629270335e-15 -7.951386703658792e-16
-0.6000000238418579 6.5 24.0 -19.440041528313284 69.9885303938486 14.570315854423319 -3.8743030867424464 -2.7756902847007 -0.601152859706828 -1.0146663843574655e-06 -2.6686498527768755e-07 -8.114367613224498 84.17826162373055 -0.5454726989879101 -122.41607571548099 -4.962865319140741e-07 1.9747438354451664e-06 49.55755456982729 179.99999969744132 -58.35154700084816 -141.1892713203196 -6.3611093629270335e-15 -3.1805546814635168e-15 -1.7655625192200634e-31 -113.9866916092141 -27.7882481474859 158.56243635682134 2.6022399525844903e-06 6.520187843514298e-06 -87.08725303838594 -179.99999856404722 19.67951251047264 115.10062840345171 -6.3611093629270335e-15 0.0 0.0 67.50163943976716 -80.78755519488537 76.64436178548934 10.312163769245696 27.69092909510192 -48.06471527600757 80.26284252735815 -52.42933251900526 141.65845356406754 0.0 0.0 -3.1805546814635164e-15 -21.49302833835058 -47.28851258507388 19.35352601314788 -0.21274104143205655 0.006813691327986992 0.014249676291398687 -64.0657979568103 -44.3794597025689 -138.68655053869315 -4.855296927855174e-31 -6.3611093629270335e-15 -8.74652537402467e-15
-0.6000000238418579 6.5 23.899999618530273 -17.92792266252722 70.33557831817899 13.38105020966899 -3.8653657536056074 -3.544161953594821 -0.7560965686707737 3.424544022037092e-08 -1.151672702370401e-06 -7.587453739816374 84.60785137057971 -0.5438907569671073 -122.31441728661176 3.9735783510674864e-07 -1.1970140861551546e-06 50.12053795234239 -179.99999908401006 -57.06028374578151 -141.98023170323287 0.0 0.0 -1.5902773407317582e-15 -113.28045968818196 -28.00302033081405 158.16671335253568 2.469840150781757e-06 -1.7244264756183382e-07 -86.05886172089703 179.99999927841614 19.971968542839246 117.16297705451532 -6.3611093629270335e-15 -3.531125038440127e-31 6.3611093629270335e-15 66.17920208418815 -81.12906345630714 74.56145730344635 9.734315915073317 27.44368424475068 -46.387553997436264 79.4282604463156 -52.97113421656538 140.20075939744123 -3.1805546814635168e-15 1.5902773407317584e-15 1.5902773407317584e-15 -22.26349193158316 -47.61587360217443 19.070978540697755 0.059749211675898084 0.11274723663793104 0.23493363175145904 -64.3645522680559 -44.54075177091479 -138.82558084014028 -4.4139062980501586e-32 -6.361109362927035e-15 -7.951386703658794e-16
